{
    "asset" : {
        "generator" : "Khronos glTF Blender I/O v1.2.75",
        "version" : "2.0"
    },
    "scene" : 0,
    "scenes" : [
        {
            "name" : "Scene",
            "nodes" : [
                0
            ]
        }
    ],
    "nodes" : [
        {
            "mesh" : 0,
            "name" : "torghallenLp",
            "rotation" : [
                0.0006971538532525301,
                -0.00013141834642738104,
                -0.007878591306507587,
                0.9999687075614929
            ],
            "translation" : [
                0.6825155019760132,
                4.603357315063477,
                4.080504417419434
            ]
        }
    ],
    "materials" : [
        {
            "doubleSided" : true,
            "emissiveFactor" : [
                1,
                1,
                1
            ],
            "emissiveTexture" : {
                "index" : 0,
                "texCoord" : 0
            },
            "name" : "Material.001",
            "pbrMetallicRoughness" : {
                "baseColorTexture" : {
                    "index" : 1,
                    "texCoord" : 0
                },
                "metallicFactor" : 0,
                "roughnessFactor" : 0.5
            }
        }
    ],
    "meshes" : [
        {
            "name" : "torghallen.002",
            "primitives" : [
                {
                    "attributes" : {
                        "POSITION" : 0,
                        "NORMAL" : 1,
                        "TEXCOORD_0" : 2
                    },
                    "indices" : 3,
                    "material" : 0
                }
            ]
        }
    ],
    "textures" : [
        {
            "source" : 0
        },
        {
            "source" : 0
        }
    ],
    "images" : [
        {
            "mimeType" : "image/png",
            "name" : "DecimatedTorghallenText",
            "uri" : "DecimatedTorghallenText.png"
        }
    ],
    "accessors" : [
        {
            "bufferView" : 0,
            "componentType" : 5126,
            "count" : 29937,
            "max" : [
                33.798828125,
                9.870999336242676,
                32.60447311401367
            ],
            "min" : [
                -44.43912887573242,
                -5.678037166595459,
                -24.451736450195312
            ],
            "type" : "VEC3"
        },
        {
            "bufferView" : 1,
            "componentType" : 5126,
            "count" : 29937,
            "type" : "VEC3"
        },
        {
            "bufferView" : 2,
            "componentType" : 5126,
            "count" : 29937,
            "type" : "VEC2"
        },
        {
            "bufferView" : 3,
            "componentType" : 5123,
            "count" : 93405,
            "type" : "SCALAR"
        }
    ],
    "bufferViews" : [
        {
            "buffer" : 0,
            "byteLength" : 359244,
            "byteOffset" : 0
        },
        {
            "buffer" : 0,
            "byteLength" : 359244,
            "byteOffset" : 359244
        },
        {
            "buffer" : 0,
            "byteLength" : 239496,
            "byteOffset" : 718488
        },
        {
            "buffer" : 0,
            "byteLength" : 186810,
            "byteOffset" : 957984
        }
    ],
    "buffers" : [
        {
            "byteLength" : 1144796,
            "uri" : "TorghallenLp.bin"
        }
    ]
}
